<?xml version="1.0" encoding="utf-8"?>
<!-- Generator: Adobe Illustrator 21.0.0, SVG Export Plug-In . SVG Version: 6.00 Build 0)  -->
<svg version="1.1" id="Layer_1" xmlns="http://www.w3.org/2000/svg" xmlns:xlink="http://www.w3.org/1999/xlink" x="0px" y="0px"
	 viewBox="0 0 177 104.1" style="enable-background:new 0 0 177 104.1;" xml:space="preserve">
<style type="text/css">
	.st0{fill:#55BF98;}
	.st1{fill:#0090BE;}
	.st2{fill:#32C0CF;}
	.st3{fill:#515155;}
	.st4{fill:#515155;stroke:#515155;stroke-width:0.15;stroke-miterlimit:10;}
</style>
<path class="st0" d="M98.8,5.1c0-1.1-0.1-2.2-0.2-3.2C95.4,0.7,92,0,88.4,0s-7,0.7-10.2,1.9C78,2.9,78,4,78,5.1
	C78,13,82.2,20,88.4,23.9C94.6,20,98.8,13.1,98.8,5.1z"/>
<g>
	<path class="st1" d="M60.7,20.7c1.9,1.9,4.2,3.5,6.7,4.7c-1.2-3.5-1.8-7.2-1.8-11c0-1.1,0.1-2.3,0.2-3.4
		C63.5,13.9,61.8,17.2,60.7,20.7z"/>
	<path class="st1" d="M116,20.7c-1-3.6-2.8-6.9-5-9.7c0.1,1.1,0.2,2.2,0.2,3.4c0,3.9-0.6,7.6-1.8,11C111.8,24.3,114.1,22.7,116,20.7
		z"/>
	<path class="st1" d="M84.2,44.9c-6.6-3.5-12-9-15.2-15.8c-3.3-1.1-6.4-2.8-9-5.1c-0.3,1.5-0.4,3.1-0.4,4.8c0,5,1.3,9.8,3.6,13.9
		c4.1,2,8.7,3.1,13.6,3.1C79.3,45.8,81.8,45.5,84.2,44.9z"/>
	<path class="st1" d="M113.6,42.7c2.3-4.1,3.6-8.8,3.6-13.9c0-1.6-0.1-3.2-0.4-4.8c-2.6,2.3-5.6,4-9,5.1
		c-3.2,6.8-8.6,12.3-15.2,15.8c2.4,0.6,4.9,0.9,7.5,0.9C104.9,45.8,109.5,44.7,113.6,42.7z"/>
	<path class="st1" d="M100,48.8c-4.1,0-8-0.7-11.6-2c-3.6,1.3-7.6,2-11.6,2c-3.7,0-7.3-0.6-10.6-1.7c5.3,6.4,13.3,10.5,22.3,10.5
		s17-4.1,22.3-10.5C107.3,48.2,103.7,48.8,100,48.8z"/>
</g>
<g>
	<path class="st2" d="M76.5,27.4c3.1,0,6.1-0.7,8.9-1.8C79.1,21,75,13.6,75,5.2c0-0.6,0-1.2,0.1-1.8c-2,1.1-3.9,2.4-5.6,3.9
		c-0.5,2.3-0.8,4.7-0.8,7.2c0,4.4,0.9,8.5,2.5,12.3C72.8,27.1,74.6,27.4,76.5,27.4z"/>
	<path class="st2" d="M101.7,5.1c0,8.4-4.1,15.8-10.4,20.4c2.7,1.2,5.7,1.8,8.9,1.8c1.9,0,3.7-0.2,5.5-0.7c1.6-3.8,2.5-7.9,2.5-12.3
		c0-2.5-0.3-4.9-0.8-7.2c-1.7-1.5-3.6-2.8-5.6-3.9C101.7,3.9,101.7,4.5,101.7,5.1z"/>
	<path class="st2" d="M104,30.1c-1.2,0.2-2.5,0.3-3.8,0.3c-4.3,0-8.3-1.1-11.8-3c-3.5,1.9-7.6,3-11.8,3c-1.3,0-2.5-0.1-3.8-0.3
		c3.5,6.1,9,10.9,15.6,13.5C94.9,41,100.4,36.2,104,30.1z"/>
</g>
<path class="st3" d="M28.1,70c-1.6-1.1-3.4-1.6-5.4-1.6s-3.5,0.6-4.6,1.8c-1.1,1.2-1.7,2.8-1.7,4.7c0,1.9,0.6,3.5,1.7,4.7
	s2.6,1.8,4.6,1.8s3.8-0.5,5.4-1.6h0.1v2.1c-1.7,1-3.6,1.5-5.6,1.5c-2.4,0-4.4-0.8-6-2.3s-2.3-3.6-2.3-6.2s0.8-4.7,2.3-6.2
	c1.6-1.5,3.6-2.3,6-2.3c2,0,3.9,0.5,5.6,1.5L28.1,70L28.1,70z"/>
<path class="st3" d="M30.7,77.1c0-1.9,0.6-3.4,1.7-4.6c1.1-1.2,2.6-1.7,4.4-1.7s3.3,0.6,4.4,1.7c1.1,1.2,1.7,2.7,1.7,4.6
	s-0.6,3.4-1.7,4.6s-2.6,1.7-4.4,1.7s-3.3-0.6-4.4-1.7C31.2,80.5,30.7,79,30.7,77.1z M34,80.3c0.8,0.7,1.7,1.1,2.7,1.1s2-0.4,2.7-1.1
	c0.8-0.7,1.2-1.8,1.2-3.3s-0.4-2.5-1.2-3.2s-1.7-1.1-2.7-1.1s-2,0.4-2.7,1.1c-0.8,0.7-1.2,1.8-1.2,3.2S33.2,79.6,34,80.3z"/>
<path class="st3" d="M52.5,70.8c1.3,0,2.4,0.4,3.1,1.3c0.8,0.9,1.1,2,1.1,3.3v7.7h-2.2v-7.5c0-1.9-0.9-2.9-2.6-2.9
	c-1.4,0-2.7,0.8-3.9,2.3v8.1h-2.2V71h1.9l0.3,1.5v0.4l0,0C49.4,71.5,50.8,70.8,52.5,70.8z"/>
<path class="st3" d="M66.7,72.9h-3.4v7.2c0,0.7,0.2,1.1,0.5,1.2c0.3,0.1,0.7,0.2,1.2,0.2s1-0.1,1.6-0.4h0.2v1.8
	c-0.7,0.3-1.4,0.5-2.1,0.5c-2.3,0-3.5-1-3.5-3.1v-7.4h-2.3v-0.1l4.4-4.3v2.6h3.4L66.7,72.9L66.7,72.9z"/>
<path class="st3" d="M80.1,77.1v0.8h-9.2c0.1,1.1,0.5,2,1.2,2.6s1.8,0.9,3.2,0.9s2.7-0.4,3.9-1.2h0.1v2.1c-1.3,0.7-2.9,1.1-4.7,1.1
	s-3.2-0.6-4.3-1.7s-1.6-2.6-1.6-4.5s0.5-3.4,1.4-4.6c1-1.2,2.4-1.8,4.2-1.8s3.3,0.6,4.2,1.8C79.6,73.8,80.1,75.3,80.1,77.1z
	 M70.9,76.1h7c-0.1-1.1-0.4-2-1.2-2.6c-0.7-0.6-1.5-0.9-2.4-0.9s-1.7,0.3-2.4,0.9C71.4,74.1,71,74.9,70.9,76.1z"/>
<path class="st3" d="M89.6,70.8c1.3,0,2.4,0.4,3.1,1.3c0.8,0.9,1.1,2,1.1,3.3v7.7h-2.2v-7.5c0-1.9-0.9-2.9-2.6-2.9
	c-1.4,0-2.7,0.8-3.9,2.3v8.1h-2.2V71h1.9l0.3,1.5v0.4l0,0C86.5,71.5,88,70.8,89.6,70.8z"/>
<path class="st3" d="M103.9,72.9h-3.4v7.2c0,0.7,0.2,1.1,0.5,1.2s0.7,0.2,1.2,0.2s1-0.1,1.6-0.4h0.2v1.8c-0.7,0.3-1.4,0.5-2.1,0.5
	c-2.3,0-3.5-1-3.5-3.1v-7.4h-2.3v-0.1l4.4-4.3v2.6h3.4L103.9,72.9L103.9,72.9z"/>
<path class="st3" d="M120.9,70.8c1.3,0,2.3,0.5,3,1.4s1,2,1,3.2v7.8h-2.2v-7.4c0-1-0.2-1.8-0.6-2.3s-1-0.7-1.9-0.7
	c-1.4,0-2.5,0.8-3.4,2.3v8.1h-2.2v-7.4c0-1-0.2-1.8-0.5-2.3c-0.4-0.5-1-0.7-1.9-0.7c-1.4,0-2.5,0.8-3.4,2.3v8.1h-2.2V71h1.9l0.3,1.5
	v0.4l0,0c1-1.4,2.3-2.1,4-2.1c0.9,0,1.6,0.2,2.3,0.7c0.6,0.5,1.1,1,1.3,1.7h0.1C117.5,71.6,118.9,70.8,120.9,70.8z"/>
<path class="st3" d="M139.1,77.1v0.8h-9.2c0.1,1.1,0.5,2,1.2,2.6s1.8,0.9,3.2,0.9s2.7-0.4,3.9-1.2h0.1v2.1c-1.3,0.7-2.9,1.1-4.7,1.1
	s-3.2-0.6-4.3-1.7s-1.6-2.6-1.6-4.5s0.5-3.4,1.4-4.6c1-1.2,2.4-1.8,4.2-1.8s3.3,0.6,4.2,1.8C138.7,73.8,139.1,75.3,139.1,77.1z
	 M130,76.1h7c-0.1-1.1-0.4-2-1.2-2.6c-0.7-0.6-1.5-0.9-2.4-0.9s-1.7,0.3-2.4,0.9C130.4,74.1,130,74.9,130,76.1z"/>
<path class="st3" d="M148.6,70.8c1.3,0,2.4,0.4,3.1,1.3c0.8,0.9,1.1,2,1.1,3.3v7.7h-2.2v-7.5c0-1.9-0.9-2.9-2.6-2.9
	c-1.4,0-2.7,0.8-3.9,2.3v8.1h-2.2V71h1.9l0.3,1.5v0.4l0,0C145.5,71.5,147,70.8,148.6,70.8z"/>
<path class="st3" d="M162.9,72.9h-3.4v7.2c0,0.7,0.2,1.1,0.5,1.2s0.7,0.2,1.2,0.2s1-0.1,1.6-0.4h0.2v1.8c-0.7,0.3-1.4,0.5-2.1,0.5
	c-2.3,0-3.5-1-3.5-3.1v-7.4h-2.3v-0.1l4.4-4.3v2.6h3.4L162.9,72.9L162.9,72.9z"/>
<path class="st3" d="M42.1,91.4h8.4v1.5h-6.8v3.9h6.2v1.5h-6.2v5.5h-1.6C42.1,103.8,42.1,91.4,42.1,91.4z"/>
<path class="st3" d="M52.1,99.3c0-1.4,0.4-2.6,1.2-3.4c0.8-0.9,1.9-1.3,3.3-1.3c1.4,0,2.5,0.4,3.3,1.3s1.3,2,1.3,3.4
	s-0.4,2.6-1.3,3.4c-0.8,0.9-1.9,1.3-3.3,1.3c-1.4,0-2.5-0.4-3.3-1.3C52.5,101.9,52.1,100.7,52.1,99.3z M54.6,101.8
	c0.6,0.5,1.3,0.8,2.1,0.8s1.5-0.3,2.1-0.8s0.9-1.4,0.9-2.4c0-1.1-0.3-1.9-0.9-2.4c-0.6-0.5-1.3-0.8-2.1-0.8s-1.5,0.3-2.1,0.8
	s-0.9,1.3-0.9,2.4C53.7,100.4,54,101.2,54.6,101.8z"/>
<path class="st3" d="M66.6,104c-1,0-1.8-0.3-2.3-1c-0.6-0.7-0.9-1.5-0.9-2.5v-5.8H65v5.6c0,1.5,0.7,2.2,2,2.2c1,0,2-0.6,2.9-1.7
	v-6.1h1.6v9.1h-1.4l-0.2-1.1v-0.3l0,0C68.9,103.5,67.8,104,66.6,104z"/>
<path class="st3" d="M79.3,94.6c1,0,1.8,0.3,2.3,1c0.6,0.7,0.9,1.5,0.9,2.5v5.8h-1.6v-5.6c0-1.5-0.7-2.2-2-2.2c-1,0-2,0.6-2.9,1.7
	v6.1h-1.7v-9.1h1.4l0.2,1.1v0.3l0,0C76.9,95.1,78,94.6,79.3,94.6z"/>
<path class="st3" d="M85.9,95.9c0.9-0.9,1.9-1.3,3-1.3s2.2,0.4,3,1.3H92v-5.1h1.6v13h-1.4l-0.2-1.1h-0.1c-0.8,0.9-1.8,1.3-3,1.3
	s-2.2-0.4-3-1.3c-0.9-0.9-1.3-2-1.3-3.4C84.6,97.9,85.1,96.7,85.9,95.9z M89.2,102.5c1.1,0,2-0.4,2.8-1.3v-3.7
	c-0.8-0.9-1.7-1.3-2.8-1.3c-0.9,0-1.6,0.3-2.1,0.8s-0.8,1.3-0.8,2.4c0,1,0.3,1.8,0.8,2.4S88.3,102.5,89.2,102.5z"/>
<path class="st3" d="M96.6,95.3c1-0.5,2.1-0.7,3.3-0.7s2.1,0.3,2.7,1s0.9,1.5,0.9,2.5v5.8h-1.4l-0.2-1.1h-0.1
	c-0.9,0.9-2,1.3-3.3,1.3c-0.8,0-1.5-0.2-2.1-0.7s-0.8-1.2-0.8-2s0.3-1.5,1-2.1c0.7-0.5,1.7-0.8,3.1-0.8h2.2v-0.1
	c0-0.8-0.2-1.3-0.6-1.7c-0.4-0.3-1.1-0.5-2-0.5c-1,0-1.8,0.2-2.7,0.6h-0.1L96.6,95.3L96.6,95.3L96.6,95.3z M102,101.3v-1.5h-1.9
	c-1.8,0-2.7,0.5-2.7,1.4s0.6,1.4,1.9,1.4c0.5,0,1-0.1,1.5-0.4C101.2,102,101.6,101.7,102,101.3z"/>
<path class="st3" d="M111.1,96.2h-2.6v5.4c0,0.5,0.1,0.8,0.4,0.9c0.2,0.1,0.5,0.1,0.9,0.1s0.7-0.1,1.2-0.3h0.1v1.3
	c-0.5,0.3-1,0.4-1.6,0.4c-1.7,0-2.6-0.8-2.6-2.4v-5.5h-1.7V96l3.3-3.2v2h2.6L111.1,96.2L111.1,96.2z"/>
<path class="st3" d="M114.9,91.1v1.7h-1.7v-1.7H114.9z M113.3,103.9v-9.1h1.6v9.1H113.3z"/>
<path class="st3" d="M117.2,99.3c0-1.4,0.4-2.6,1.2-3.4c0.8-0.9,1.9-1.3,3.3-1.3s2.5,0.4,3.3,1.3c0.8,0.9,1.3,2,1.3,3.4
	s-0.4,2.6-1.3,3.4c-0.8,0.9-1.9,1.3-3.3,1.3s-2.5-0.4-3.3-1.3C117.6,101.9,117.2,100.7,117.2,99.3z M119.7,101.8
	c0.6,0.5,1.3,0.8,2.1,0.8s1.5-0.3,2.1-0.8s0.9-1.4,0.9-2.4c0-1.1-0.3-1.9-0.9-2.4s-1.3-0.8-2.1-0.8s-1.5,0.3-2.1,0.8
	s-0.9,1.3-0.9,2.4C118.8,100.4,119.1,101.2,119.7,101.8z"/>
<path class="st3" d="M133.5,94.6c1,0,1.8,0.3,2.3,1c0.6,0.7,0.9,1.5,0.9,2.5v5.8h-1.6v-5.6c0-1.5-0.7-2.2-2-2.2c-1,0-2,0.6-2.9,1.7
	v6.1h-1.6v-9.1h1.4l0.2,1.1v0.3l0,0C131.2,95.1,132.3,94.6,133.5,94.6z"/>
<path class="st4" d="M36.8,59.9v0.9h-2.5v6.4h-1v-6.4h-2.5v-0.9C30.8,59.9,36.8,59.9,36.8,59.9z"/>
<path class="st4" d="M40.7,61.7c0.6,0,1,0.2,1.4,0.6c0.3,0.4,0.5,0.9,0.5,1.5v3.4h-0.9v-3.3c0-0.8-0.4-1.3-1.1-1.3
	c-0.6,0-1.2,0.3-1.7,1v3.5H38v-7.6h0.9v3.1l0,0C39.3,62,40,61.7,40.7,61.7z"/>
<path class="st4" d="M48.8,64.5v0.3h-4c0.1,0.5,0.2,0.9,0.5,1.1c0.3,0.3,0.8,0.4,1.4,0.4c0.6,0,1.2-0.2,1.7-0.5h0.1v0.9
	c-0.6,0.3-1.3,0.5-2.1,0.5S45,67,44.5,66.5s-0.7-1.1-0.7-2c0-0.8,0.2-1.5,0.6-2c0.4-0.5,1-0.8,1.9-0.8s1.4,0.3,1.9,0.8
	C48.6,63,48.8,63.7,48.8,64.5z M44.8,64h3.1c0-0.5-0.2-0.9-0.5-1.1c-0.3-0.3-0.7-0.4-1-0.4c-0.4,0-0.7,0.1-1,0.4
	C45,63.2,44.8,63.5,44.8,64z"/>
<circle class="st0" cx="31.6" cy="97.7" r="1.5"/>
<circle class="st0" cx="145.7" cy="97.7" r="1.5"/>
<circle class="st2" cx="23.7" cy="97.7" r="1.5"/>
<circle class="st2" cx="153.6" cy="97.7" r="1.5"/>
<circle class="st1" cx="15.8" cy="97.7" r="1.5"/>
<circle class="st1" cx="161.4" cy="97.7" r="1.5"/>
</svg>
