<?xml version="1.0" encoding="utf-8"?>
<!-- Generator: Adobe Illustrator 21.1.0, SVG Export Plug-In . SVG Version: 6.00 Build 0)  -->
<svg version="1.1" baseProfile="tiny" id="Layer_1" xmlns="http://www.w3.org/2000/svg" xmlns:xlink="http://www.w3.org/1999/xlink"
	 x="0px" y="0px" viewBox="0 0 64 64" xml:space="preserve">
<path fill="#57BF98" d="M43.4,6c0-1.2-0.1-2.4-0.2-3.5C39.7,1.2,35.9,0.4,32,0.4s-7.7,0.8-11.2,2.1c-0.2,1.1-0.2,2.3-0.2,3.5
	c0,8.7,4.6,16.3,11.4,20.6C38.8,22.4,43.4,14.8,43.4,6z"/>
<g>
	<path fill="#0190BE" d="M1.6,23.1C3.7,25.2,6.2,27,9,28.3c-1.3-3.8-2-7.9-2-12.1c0-1.2,0.1-2.5,0.2-3.7C4.7,15.7,2.8,19.3,1.6,23.1
		z"/>
	<path fill="#0190BE" d="M62.3,23.1c-1.1-3.9-3.1-7.6-5.5-10.6c0.1,1.2,0.2,2.4,0.2,3.7c0,4.3-0.7,8.3-2,12.1
		C57.6,27.1,60.2,25.3,62.3,23.1z"/>
	<path fill="#0190BE" d="M27.4,49.6c-7.2-3.8-13.2-9.9-16.7-17.3c-3.6-1.2-7-3.1-9.9-5.6c-0.3,1.6-0.4,3.4-0.4,5.3
		c0,5.5,1.4,10.7,3.9,15.2c4.5,2.2,9.5,3.4,14.9,3.4C22,50.6,24.8,50.3,27.4,49.6z"/>
	<path fill="#0190BE" d="M59.6,47.2c2.5-4.5,3.9-9.6,3.9-15.2c0-1.8-0.1-3.5-0.4-5.3c-2.8,2.5-6.1,4.4-9.9,5.6
		c-3.5,7.5-9.4,13.5-16.7,17.3c2.6,0.7,5.4,1,8.2,1C50.1,50.6,55.1,49.4,59.6,47.2z"/>
	<path fill="#0190BE" d="M44.7,53.9c-4.5,0-8.8-0.8-12.7-2.2c-3.9,1.4-8.3,2.2-12.7,2.2c-4.1,0-8-0.7-11.6-1.9
		c5.8,7,14.6,11.5,24.4,11.5s18.6-4.5,24.4-11.5C52.7,53.3,48.8,53.9,44.7,53.9z"/>
</g>
<g>
	<path fill="#36C1CF" d="M19,30.5c3.4,0,6.7-0.8,9.8-2c-6.9-5-11.4-13.2-11.4-22.4c0-0.7,0-1.3,0.1-2c-2.2,1.2-4.3,2.6-6.1,4.3
		c-0.5,2.5-0.9,5.2-0.9,7.9c0,4.8,1,9.3,2.7,13.5C14.9,30.1,16.9,30.5,19,30.5z"/>
	<path fill="#36C1CF" d="M46.6,6c0,9.2-4.5,17.3-11.4,22.4c3,1.3,6.2,2,9.8,2c2.1,0,4.1-0.2,6-0.8c1.8-4.2,2.7-8.7,2.7-13.5
		c0-2.7-0.3-5.4-0.9-7.9c-1.9-1.6-3.9-3.1-6.1-4.3C46.6,4.7,46.6,5.4,46.6,6z"/>
	<path fill="#36C1CF" d="M49.1,33.4c-1.3,0.2-2.7,0.3-4.2,0.3c-4.7,0-9.1-1.2-12.9-3.3c-3.8,2.1-8.3,3.3-12.9,3.3
		c-1.4,0-2.7-0.1-4.2-0.3c3.8,6.7,9.9,11.9,17.1,14.8C39.1,45.4,45.2,40.1,49.1,33.4z"/>
</g>
</svg>
